<?xml version="1.0" encoding="UTF-8"?>
<svg xmlns="http://www.w3.org/2000/svg" xmlns:xlink="http://www.w3.org/1999/xlink" width="292.39pt" height="98.86pt" viewBox="0 0 292.39 98.86" version="1.1">
<defs>
<clipPath id="clip1">
  <path d="M 11 80 L 26 80 L 26 98.859375 L 11 98.859375 Z M 11 80 "/>
</clipPath>
<clipPath id="clip2">
  <path d="M 22 85 L 36 85 L 36 98.859375 L 22 98.859375 Z M 22 85 "/>
</clipPath>
<clipPath id="clip3">
  <path d="M 34 79 L 44 79 L 44 98.859375 L 34 98.859375 Z M 34 79 "/>
</clipPath>
<clipPath id="clip4">
  <path d="M 42 85 L 54 85 L 54 98.859375 L 42 98.859375 Z M 42 85 "/>
</clipPath>
<clipPath id="clip5">
  <path d="M 54 85 L 69 85 L 69 98.859375 L 54 98.859375 Z M 54 85 "/>
</clipPath>
<clipPath id="clip6">
  <path d="M 67 85 L 83 85 L 83 98.859375 L 67 98.859375 Z M 67 85 "/>
</clipPath>
<clipPath id="clip7">
  <path d="M 82 85 L 95 85 L 95 98.859375 L 82 98.859375 Z M 82 85 "/>
</clipPath>
<clipPath id="clip8">
  <path d="M 101 85 L 113 85 L 113 98.859375 L 101 98.859375 Z M 101 85 "/>
</clipPath>
<clipPath id="clip9">
  <path d="M 111 85 L 126 85 L 126 98.859375 L 111 98.859375 Z M 111 85 "/>
</clipPath>
<clipPath id="clip10">
  <path d="M 126 85 L 141 85 L 141 98.859375 L 126 98.859375 Z M 126 85 "/>
</clipPath>
<clipPath id="clip11">
  <path d="M 140 81 L 150 81 L 150 98.859375 L 140 98.859375 Z M 140 81 "/>
</clipPath>
<clipPath id="clip12">
  <path d="M 148 85 L 161 85 L 161 98.859375 L 148 98.859375 Z M 148 85 "/>
</clipPath>
<clipPath id="clip13">
  <path d="M 168 85 L 182 85 L 182 98.859375 L 168 98.859375 Z M 168 85 "/>
</clipPath>
<clipPath id="clip14">
  <path d="M 180 85 L 196 85 L 196 98.859375 L 180 98.859375 Z M 180 85 "/>
</clipPath>
<clipPath id="clip15">
  <path d="M 195 85 L 208 85 L 208 98.859375 L 195 98.859375 Z M 195 85 "/>
</clipPath>
<clipPath id="clip16">
  <path d="M 208 85 L 221 85 L 221 98.859375 L 208 98.859375 Z M 208 85 "/>
</clipPath>
<clipPath id="clip17">
  <path d="M 220 85 L 242 85 L 242 98.859375 L 220 98.859375 Z M 220 85 "/>
</clipPath>
<clipPath id="clip18">
  <path d="M 241 79 L 257 79 L 257 98.859375 L 241 98.859375 Z M 241 79 "/>
</clipPath>
<clipPath id="clip19">
  <path d="M 256 79 L 266 79 L 266 98.859375 L 256 98.859375 Z M 256 79 "/>
</clipPath>
<clipPath id="clip20">
  <path d="M 264 85 L 277 85 L 277 98.859375 L 264 98.859375 Z M 264 85 "/>
</clipPath>
<clipPath id="clip21">
  <path d="M 279 79 L 292.390625 79 L 292.390625 88 L 279 88 Z M 279 79 "/>
</clipPath>
</defs>
<g id="surface1">
<path style=" stroke:none;fill-rule:nonzero;fill:rgb(0%,32.499695%,62.69989%);fill-opacity:1;" d="M 35.480469 0.00390625 L 107.644531 0.00390625 C 112.894531 0.00390625 117.148438 4.320313 117.148438 9.570313 L 117.148438 52.96875 C 117.148438 58.15625 112.894531 62.472656 107.644531 62.472656 L 35.480469 62.472656 C 30.230469 62.472656 25.914063 58.15625 25.914063 52.96875 L 25.914063 9.570313 C 25.914063 4.320313 30.230469 0.00390625 35.480469 0.00390625 "/>
<path style=" stroke:none;fill-rule:nonzero;fill:rgb(100%,100%,100%);fill-opacity:1;" d="M 36.605469 1.128906 L 106.582031 1.128906 C 111.710938 1.128906 115.835938 5.257813 115.835938 10.320313 L 115.835938 52.21875 C 115.835938 57.28125 111.710938 61.410156 106.582031 61.410156 L 36.605469 61.410156 C 31.542969 61.410156 27.351563 57.28125 27.351563 52.21875 L 27.351563 10.320313 C 27.351563 5.257813 31.542969 1.128906 36.605469 1.128906 "/>
<path style=" stroke:none;fill-rule:nonzero;fill:rgb(0%,32.499695%,62.69989%);fill-opacity:1;" d="M 96.515625 56.90625 L 96.515625 6.359375 L 94.449219 6.359375 L 94.386719 56.90625 L 96.515625 56.90625 "/>
<path style=" stroke:none;fill-rule:nonzero;fill:rgb(0%,32.499695%,62.69989%);fill-opacity:1;" d="M 89.886719 56.90625 L 89.886719 6.359375 L 88.699219 6.359375 L 88.699219 56.90625 L 89.886719 56.90625 "/>
<path style=" stroke:none;fill-rule:nonzero;fill:rgb(0%,32.499695%,62.69989%);fill-opacity:1;" d="M 93.136719 56.90625 L 93.136719 6.359375 L 91.449219 6.359375 L 91.449219 56.90625 C 91.699219 56.90625 93.011719 56.90625 93.136719 56.90625 "/>
<path style=" stroke:none;fill-rule:nonzero;fill:rgb(0%,32.499695%,62.69989%);fill-opacity:1;" d="M 99.703125 56.46875 L 99.703125 6.570313 C 99.265625 6.320313 98.453125 6.359375 97.765625 6.359375 L 97.765625 56.90625 C 98.640625 56.90625 99.015625 56.90625 99.703125 56.46875 "/>
<path style=" stroke:none;fill-rule:nonzero;fill:rgb(0%,32.499695%,62.69989%);fill-opacity:1;" d="M 103.144531 55.84375 L 103.144531 7.195313 C 102.390625 6.882813 101.953125 6.820313 101.203125 6.757813 L 101.203125 56.46875 C 102.015625 56.46875 102.390625 56.21875 103.144531 55.84375 "/>
<path style=" stroke:none;fill-rule:nonzero;fill:rgb(0%,32.499695%,62.69989%);fill-opacity:1;" d="M 59.117188 56.28125 L 59.117188 45.402344 L 58.304688 45.402344 L 58.304688 56.28125 L 59.117188 56.28125 "/>
<path style=" stroke:none;fill-rule:nonzero;fill:rgb(0%,32.499695%,62.69989%);fill-opacity:1;" d="M 66.746094 56.90625 L 66.746094 6.359375 L 66.308594 6.359375 L 66.308594 56.90625 L 66.746094 56.90625 "/>
<path style=" stroke:none;fill-rule:nonzero;fill:rgb(0%,32.499695%,62.69989%);fill-opacity:1;" d="M 70.5 56.90625 L 70.5 6.359375 L 70.0625 6.359375 L 70.0625 56.90625 L 70.5 56.90625 "/>
<path style=" stroke:none;fill-rule:nonzero;fill:rgb(0%,32.499695%,62.69989%);fill-opacity:1;" d="M 74.253906 56.90625 L 74.253906 6.359375 L 73.816406 6.359375 L 73.816406 56.90625 L 74.253906 56.90625 "/>
<path style=" stroke:none;fill-rule:nonzero;fill:rgb(0%,32.499695%,62.69989%);fill-opacity:1;" d="M 78.128906 56.90625 L 78.128906 6.359375 L 77.503906 6.359375 L 77.503906 56.90625 L 78.128906 56.90625 "/>
<path style=" stroke:none;fill-rule:nonzero;fill:rgb(0%,32.499695%,62.69989%);fill-opacity:1;" d="M 81.945313 56.90625 L 81.945313 6.359375 L 81.132813 6.359375 L 81.132813 56.90625 L 81.945313 56.90625 "/>
<path style=" stroke:none;fill-rule:nonzero;fill:rgb(0%,32.499695%,62.69989%);fill-opacity:1;" d="M 85.945313 56.90625 L 85.945313 6.359375 L 85.007813 6.359375 L 85.007813 56.90625 L 85.945313 56.90625 "/>
<path style=" stroke:none;fill-rule:nonzero;fill:rgb(0%,32.499695%,62.69989%);fill-opacity:1;" d="M 52.429688 56.21875 L 52.429688 45.339844 L 50.925781 45.339844 L 50.925781 56.21875 L 52.429688 56.21875 "/>
<path style=" stroke:none;fill-rule:nonzero;fill:rgb(0%,32.499695%,62.69989%);fill-opacity:1;" d="M 55.492188 56.21875 L 55.492188 45.339844 L 54.054688 45.339844 L 54.054688 56.21875 L 55.492188 56.21875 "/>
<path style=" stroke:none;fill-rule:nonzero;fill:rgb(0%,32.499695%,62.69989%);fill-opacity:1;" d="M 62.308594 56.84375 L 63.121094 56.84375 L 63.121094 43.277344 L 62.308594 43.277344 L 62.308594 56.84375 "/>
<path style=" stroke:none;fill-rule:nonzero;fill:rgb(0%,32.499695%,62.69989%);fill-opacity:1;" d="M 49.363281 56.15625 L 49.363281 44.777344 C 48.550781 44.527344 47.988281 44.464844 47.425781 43.777344 L 47.425781 56.15625 C 47.425781 56.15625 49.363281 56.78125 49.363281 56.15625 "/>
<path style=" stroke:none;fill-rule:nonzero;fill:rgb(0%,32.499695%,62.69989%);fill-opacity:1;" d="M 46.425781 55.78125 L 46.425781 43.277344 C 45.363281 40.273438 45.363281 35.023438 45.363281 29.832031 L 45.363281 6.359375 L 44.234375 6.359375 L 44.171875 55.40625 C 45.238281 55.71875 45.863281 55.96875 46.425781 55.78125 "/>
<path style=" stroke:none;fill-rule:nonzero;fill:rgb(0%,32.499695%,62.69989%);fill-opacity:1;" d="M 107.210938 54.40625 L 107.210938 31.894531 L 106.457031 31.457031 L 107.207031 30.894531 L 107.207031 8.945313 C 106.457031 8.445313 105.394531 7.757813 104.269531 7.507813 L 104.269531 55.59375 C 106.269531 55.15625 107.113281 54.46875 107.210938 54.40625 "/>
<path style=" stroke:none;fill-rule:nonzero;fill:rgb(0%,32.499695%,62.69989%);fill-opacity:1;" d="M 42.859375 54.90625 L 42.859375 6.359375 L 40.984375 6.359375 L 41.046875 54.28125 C 41.046875 54.71875 42.046875 54.90625 42.859375 54.90625 "/>
<path style=" stroke:none;fill-rule:nonzero;fill:rgb(0%,32.499695%,62.69989%);fill-opacity:1;" d="M 39.859375 53.84375 L 39.859375 6.359375 L 37.046875 6.359375 L 37.046875 51.96875 C 37.046875 52.53125 38.671875 53.65625 39.859375 53.84375 "/>
<path style=" stroke:none;fill-rule:nonzero;fill:rgb(0%,32.499695%,62.69989%);fill-opacity:1;" d="M 35.855469 51.15625 L 35.855469 6.359375 L 31.105469 6.359375 L 31.105469 41.085938 C 31.230469 41.585938 31.917969 49.027344 35.855469 51.15625 "/>
<path style=" stroke:none;fill-rule:nonzero;fill:rgb(0%,32.499695%,62.69989%);fill-opacity:1;" d="M 113.523438 20.078125 C 113.085938 16.324219 111.835938 12.011719 108.144531 9.507813 L 108.144531 31.082031 C 111.835938 27.707031 113.585938 24.828125 113.523438 20.078125 "/>
<path style=" stroke:none;fill-rule:nonzero;fill:rgb(0%,32.499695%,62.69989%);fill-opacity:1;" d="M 113.523438 43.152344 C 113.085938 39.398438 111.835938 35.085938 108.144531 32.582031 L 108.144531 54.21875 C 111.835938 50.78125 113.585938 47.902344 113.523438 43.152344 "/>
<path style=" stroke:none;fill-rule:nonzero;fill:rgb(0%,32.499695%,62.69989%);fill-opacity:1;" d="M 124.402344 8.507813 L 130.78125 8.507813 L 130.78125 22.578125 C 130.78125 23.890625 131.03125 24.828125 131.46875 25.390625 C 131.96875 25.890625 132.71875 26.203125 133.847656 26.203125 C 134.972656 26.203125 135.722656 25.890625 136.160156 25.390625 C 136.660156 24.828125 136.847656 23.890625 136.847656 22.578125 L 136.847656 8.507813 L 143.285156 8.507813 L 143.285156 23.140625 C 143.285156 26.015625 142.476563 28.207031 140.851563 29.707031 C 139.222656 31.207031 136.910156 31.957031 133.847656 31.957031 C 130.78125 31.957031 128.40625 31.207031 126.777344 29.707031 C 125.152344 28.207031 124.402344 26.015625 124.402344 23.140625 L 124.402344 8.507813 "/>
<path style=" stroke:none;fill-rule:nonzero;fill:rgb(0%,32.499695%,62.69989%);fill-opacity:1;" d="M 147.039063 31.332031 L 147.039063 8.507813 L 153.105469 8.507813 L 158.671875 19.136719 C 158.859375 19.453125 159.046875 19.828125 159.234375 20.390625 C 159.421875 20.953125 159.609375 21.640625 159.859375 22.390625 C 159.796875 21.953125 159.734375 21.515625 159.734375 21.078125 C 159.671875 20.578125 159.671875 19.953125 159.671875 19.261719 L 159.671875 8.507813 L 165.800781 8.507813 L 165.800781 31.332031 L 159.671875 31.332031 L 154.105469 20.828125 C 153.917969 20.515625 153.730469 20.078125 153.542969 19.515625 C 153.355469 18.886719 153.105469 18.261719 152.917969 17.511719 C 152.980469 17.949219 153.042969 18.386719 153.042969 18.824219 C 153.105469 19.261719 153.105469 19.828125 153.105469 20.640625 L 153.105469 31.332031 L 147.039063 31.332031 "/>
<path style=" stroke:none;fill-rule:nonzero;fill:rgb(0%,32.499695%,62.69989%);fill-opacity:1;" d="M 169.675781 31.332031 L 169.675781 8.507813 L 176.242188 8.507813 L 176.242188 31.332031 L 169.675781 31.332031 "/>
<path style=" stroke:none;fill-rule:nonzero;fill:rgb(0%,32.499695%,62.69989%);fill-opacity:1;" d="M 180.117188 31.332031 L 180.117188 8.507813 L 188.3125 8.507813 C 190.0625 8.507813 191.3125 8.570313 192.125 8.695313 C 192.9375 8.757813 193.625 8.945313 194.1875 9.195313 C 195.1875 9.632813 196.003906 10.320313 196.503906 11.195313 C 197.0625 12.136719 197.316406 13.261719 197.316406 14.574219 C 197.316406 15.574219 197.128906 16.511719 196.753906 17.261719 C 196.3125 18.011719 195.753906 18.636719 194.9375 19.136719 C 196.003906 19.578125 196.753906 20.265625 197.253906 21.140625 C 197.753906 21.953125 198.003906 23.078125 198.003906 24.515625 C 198.003906 25.828125 197.753906 27.015625 197.253906 28.019531 C 196.8125 29.019531 196.0625 29.769531 195.128906 30.332031 C 194.503906 30.707031 193.75 30.957031 193 31.082031 C 192.1875 31.269531 190.8125 31.332031 188.9375 31.332031 Z M 186.308594 17.636719 L 188.9375 17.636719 C 189.875 17.636719 190.5 17.449219 190.8125 17.199219 C 191.1875 16.886719 191.375 16.386719 191.375 15.636719 C 191.375 14.886719 191.1875 14.386719 190.8125 14.136719 C 190.375 13.824219 189.5 13.699219 188.121094 13.699219 L 186.308594 13.699219 Z M 186.308594 26.015625 L 189.3125 26.015625 C 190.25 26.015625 191 25.828125 191.375 25.515625 C 191.8125 25.203125 192 24.640625 192 23.890625 C 192 23.140625 191.8125 22.578125 191.375 22.265625 C 190.9375 21.953125 190.25 21.828125 189.246094 21.828125 L 186.308594 21.828125 L 186.308594 26.015625 "/>
<path style=" stroke:none;fill-rule:nonzero;fill:rgb(0%,32.499695%,62.69989%);fill-opacity:1;" d="M 199.128906 31.332031 L 206.195313 8.507813 L 212.636719 8.507813 L 219.640625 31.332031 L 213.324219 31.332031 L 212.574219 28.332031 L 206.195313 28.332031 L 205.445313 31.332031 Z M 207.382813 23.515625 L 211.386719 23.515625 L 209.445313 15.636719 L 207.382813 23.515625 "/>
<path style=" stroke:none;fill-rule:nonzero;fill:rgb(0%,32.499695%,62.69989%);fill-opacity:1;" d="M 221.515625 31.332031 L 221.515625 8.507813 L 227.582031 8.507813 L 233.144531 19.136719 C 233.335938 19.453125 233.519531 19.828125 233.710938 20.390625 C 233.894531 20.953125 234.085938 21.640625 234.335938 22.390625 C 234.269531 21.953125 234.210938 21.515625 234.210938 21.078125 C 234.144531 20.578125 234.144531 19.953125 234.144531 19.261719 L 234.144531 8.507813 L 240.273438 8.507813 L 240.273438 31.332031 L 234.144531 31.332031 L 228.582031 20.828125 C 228.394531 20.515625 228.207031 20.078125 228.019531 19.515625 C 227.832031 18.886719 227.582031 18.261719 227.394531 17.511719 C 227.453125 17.949219 227.519531 18.386719 227.519531 18.824219 C 227.582031 19.261719 227.582031 19.828125 227.582031 20.640625 L 227.582031 31.332031 L 221.515625 31.332031 "/>
<path style=" stroke:none;fill-rule:nonzero;fill:rgb(0%,32.499695%,62.69989%);fill-opacity:1;" d="M 244.027344 31.332031 L 244.027344 8.507813 L 250.402344 8.507813 L 250.402344 16.074219 L 256.15625 8.507813 L 263.535156 8.507813 L 256.472656 16.949219 L 264.476563 31.332031 L 256.847656 31.332031 L 251.96875 22.203125 L 250.402344 24.078125 L 250.402344 31.332031 L 244.027344 31.332031 "/>
<path style=" stroke:none;fill-rule:nonzero;fill:rgb(0%,32.499695%,62.69989%);fill-opacity:1;" d="M 138.222656 49.589844 L 131.84375 44.527344 L 139.847656 44.527344 L 142.601563 37.023438 L 145.289063 44.527344 L 153.167969 44.527344 L 146.976563 49.589844 L 149.355469 57.03125 L 142.601563 52.78125 L 136.097656 57.03125 L 138.222656 49.589844 "/>
<path style=" stroke:none;fill-rule:nonzero;fill:rgb(0%,32.499695%,62.69989%);fill-opacity:1;" d="M 164.925781 49.589844 L 158.605469 44.527344 L 166.550781 44.527344 L 169.300781 37.023438 L 171.988281 44.527344 L 179.933594 44.527344 L 173.679688 49.589844 L 176.054688 57.03125 L 169.300781 52.78125 L 162.859375 57.03125 L 164.925781 49.589844 "/>
<path style=" stroke:none;fill-rule:nonzero;fill:rgb(0%,32.499695%,62.69989%);fill-opacity:1;" d="M 191.0625 49.589844 L 184.683594 44.527344 L 192.6875 44.527344 L 195.4375 37.023438 L 198.128906 44.527344 L 206.007813 44.527344 L 199.816406 49.589844 L 202.191406 57.03125 L 195.4375 52.78125 L 188.9375 57.03125 L 191.0625 49.589844 "/>
<path style=" stroke:none;fill-rule:nonzero;fill:rgb(0%,32.499695%,62.69989%);fill-opacity:1;" d="M 217.765625 49.589844 L 211.445313 44.527344 L 219.449219 44.527344 L 222.140625 37.023438 L 224.828125 44.527344 L 232.769531 44.527344 L 226.519531 49.589844 L 228.894531 57.03125 L 222.140625 52.78125 L 215.699219 57.03125 L 217.765625 49.589844 "/>
<path style=" stroke:none;fill-rule:nonzero;fill:rgb(0%,32.499695%,62.69989%);fill-opacity:1;" d="M 244.464844 49.589844 L 238.148438 44.527344 L 246.152344 44.527344 L 248.84375 37.023438 L 251.53125 44.527344 L 259.472656 44.527344 L 253.21875 49.589844 L 255.65625 57.03125 L 248.84375 52.78125 L 242.398438 57.03125 L 244.464844 49.589844 "/>
<g clip-path="url(#clip1)" clip-rule="nonzero">
<path style=" stroke:none;fill-rule:nonzero;fill:rgb(0%,32.499695%,62.69989%);fill-opacity:1;" d="M 18.265625 94.496094 C 17.945313 96.097656 17.722656 97.34375 18.601563 98.449219 L 18.585938 98.53125 L 11.632813 98.53125 L 11.648438 98.449219 C 13.078125 97.589844 13.207031 96.042969 13.5 94.578125 L 15.554688 84.253906 C 15.84375 82.816406 16.335938 81.242188 15.242188 80.410156 L 15.261719 80.328125 L 24.230469 80.332031 C 24.617188 80.332031 25.027344 80.332031 25.34375 80.164063 L 25.417969 80.164063 L 24.621094 84.175781 L 24.542969 84.175781 C 24.109375 82.878906 22.617188 83.042969 21.367188 83.042969 L 20.546875 83.042969 L 19.65625 87.519531 L 21.523438 87.519531 C 21.90625 87.519531 22.242188 87.492188 22.496094 87.378906 L 22.621094 87.378906 L 21.847656 91.257813 L 21.722656 91.257813 C 21.601563 90.207031 20.539063 90.261719 19.621094 90.261719 L 19.113281 90.234375 L 18.265625 94.496094 "/>
</g>
<g clip-path="url(#clip2)" clip-rule="nonzero">
<path style=" stroke:none;fill-rule:nonzero;fill:rgb(0%,32.499695%,62.69989%);fill-opacity:1;" d="M 34.078125 98.773438 L 33.03125 98.855469 C 31.726563 98.855469 30.585938 98.550781 29.804688 97.578125 C 28.84375 96.359375 29.199219 95.09375 29.523438 93.46875 L 29.703125 92.5625 L 28.789063 92.976563 C 28.074219 93.304688 27.160156 93.71875 26.976563 94.625 C 26.785156 95.589844 27.273438 96.414063 28.210938 96.414063 C 28.390625 96.414063 28.550781 96.386719 28.738281 96.359375 L 27.140625 98.773438 L 25.800781 98.855469 C 24.929688 98.855469 23.832031 98.691406 23.1875 98.191406 C 22.292969 97.523438 21.882813 96.222656 22.136719 94.957031 C 23.152344 89.867188 29.90625 91.542969 30.367188 89.234375 C 30.535156 88.382813 29.582031 88.078125 28.933594 88.078125 C 27.871094 88.078125 26.5625 88.464844 25.507813 88.984375 L 27.34375 85.839844 C 28.457031 85.535156 29.558594 85.453125 30.679688 85.453125 C 31.890625 85.453125 33.195313 85.703125 34.035156 86.503906 C 35.105469 87.554688 34.914063 89.152344 34.597656 90.746094 L 34.160156 92.949219 C 33.792969 94.789063 33.414063 96.304688 35.609375 96.359375 L 34.078125 98.773438 "/>
</g>
<g clip-path="url(#clip3)" clip-rule="nonzero">
<path style=" stroke:none;fill-rule:nonzero;fill:rgb(0%,32.499695%,62.69989%);fill-opacity:1;" d="M 38.503906 82.722656 C 38.800781 81.230469 40.074219 79.984375 41.484375 79.984375 C 42.816406 79.984375 43.65625 81.171875 43.375 82.582031 C 43.074219 84.105469 41.714844 85.265625 40.332031 85.265625 C 39.074219 85.265625 38.238281 84.050781 38.503906 82.722656 Z M 40.882813 85.792969 C 41.578125 85.792969 42.15625 85.710938 42.710938 85.378906 L 42.789063 85.378906 L 40.777344 95.472656 C 40.523438 96.746094 40.285156 97.546875 41.085938 98.433594 L 41.070313 98.515625 L 34.835938 98.515625 L 34.851563 98.433594 C 36.003906 97.546875 36.085938 96.746094 36.339844 95.472656 L 37.660156 88.835938 C 37.921875 87.535156 38.15625 86.734375 37.378906 85.878906 L 37.394531 85.792969 L 40.882813 85.792969 "/>
</g>
<g clip-path="url(#clip4)" clip-rule="nonzero">
<path style=" stroke:none;fill-rule:nonzero;fill:rgb(0%,32.499695%,62.69989%);fill-opacity:1;" d="M 42.148438 95.058594 C 43.332031 95.941406 44.765625 96.578125 46.378906 96.578125 C 47.097656 96.578125 48.242188 96.386719 48.445313 95.363281 C 48.816406 93.511719 42.710938 93.402344 43.453125 89.671875 C 43.75 88.179688 44.691406 87.050781 46.011719 86.335938 C 47.339844 85.589844 48.75 85.453125 50.085938 85.453125 C 51.421875 85.453125 52.71875 85.644531 53.964844 85.976563 L 53.390625 88.84375 C 52.554688 88.152344 51.472656 87.765625 50.320313 87.765625 C 49.804688 87.765625 48.773438 87.902344 48.625 88.648438 C 48.457031 89.507813 49.261719 89.726563 49.839844 89.921875 C 50.703125 90.222656 51.695313 90.527344 52.402344 91.109375 C 53.332031 91.855469 53.988281 92.933594 53.707031 94.339844 C 52.972656 98.035156 48.980469 98.859375 46.257813 98.859375 C 44.824219 98.859375 43.425781 98.558594 42.082031 98.226563 L 42.148438 95.058594 "/>
</g>
<g clip-path="url(#clip5)" clip-rule="nonzero">
<path style=" stroke:none;fill-rule:nonzero;fill:rgb(0%,32.499695%,62.69989%);fill-opacity:1;" d="M 59.988281 98.859375 C 63.882813 98.859375 67.308594 96.351563 68.175781 91.996094 C 68.550781 90.121094 68.132813 88.21875 67.035156 87.03125 C 66.011719 85.867188 64.503906 85.453125 62.867188 85.453125 C 59.023438 85.453125 55.679688 88.054688 54.839844 92.273438 C 54.027344 96.351563 56.328125 98.859375 59.988281 98.859375 Z M 60.808594 96.296875 C 58.554688 96.296875 58.929688 93.402344 59.296875 91.554688 C 59.621094 89.929688 60.417969 88.109375 62.234375 88.109375 C 64.304688 88.109375 64.089844 90.867188 63.75 92.574219 C 63.425781 94.203125 62.753906 96.296875 60.808594 96.296875 "/>
</g>
<g clip-path="url(#clip6)" clip-rule="nonzero">
<path style=" stroke:none;fill-rule:nonzero;fill:rgb(0%,32.499695%,62.69989%);fill-opacity:1;" d="M 75.320313 86.914063 C 76.269531 85.894531 77.464844 85.453125 78.777344 85.453125 C 80.164063 85.453125 81.371094 85.839844 82.082031 87.023438 C 82.796875 88.210938 82.46875 89.453125 82.179688 90.921875 L 81.269531 95.484375 C 81.011719 96.785156 80.773438 97.585938 81.578125 98.441406 L 81.5625 98.527344 L 75.324219 98.527344 L 75.339844 98.441406 C 76.488281 97.585938 76.574219 96.785156 76.832031 95.484375 L 77.761719 90.808594 C 77.882813 90.203125 78.011719 89.566406 77.753906 89.039063 C 77.570313 88.542969 77.109375 88.265625 76.570313 88.265625 C 76.132813 88.265625 75.621094 88.515625 75.285156 88.890625 C 74.796875 89.417969 74.667969 90.191406 74.546875 90.800781 L 73.613281 95.472656 C 73.355469 96.773438 73.117188 97.574219 73.925781 98.433594 L 73.910156 98.515625 L 67.671875 98.515625 L 67.6875 98.433594 C 68.835938 97.574219 68.917969 96.773438 69.175781 95.472656 L 70.5 88.835938 C 70.753906 87.5625 70.988281 86.761719 70.191406 85.878906 L 70.207031 85.792969 L 73.644531 85.792969 C 74.261719 85.792969 74.820313 85.683594 75.550781 85.378906 L 75.625 85.378906 L 75.320313 86.914063 "/>
</g>
<g clip-path="url(#clip7)" clip-rule="nonzero">
<path style=" stroke:none;fill-rule:nonzero;fill:rgb(0%,32.499695%,62.69989%);fill-opacity:1;" d="M 82.722656 95.058594 C 83.902344 95.941406 85.339844 96.578125 86.953125 96.578125 C 87.671875 96.578125 88.816406 96.386719 89.019531 95.363281 C 89.386719 93.511719 83.28125 93.402344 84.027344 89.671875 C 84.324219 88.179688 85.265625 87.050781 86.585938 86.335938 C 87.914063 85.589844 89.324219 85.453125 90.660156 85.453125 C 91.996094 85.453125 93.292969 85.644531 94.535156 85.976563 L 93.964844 88.84375 C 93.125 88.152344 92.046875 87.765625 90.894531 87.765625 C 90.378906 87.765625 89.347656 87.902344 89.199219 88.648438 C 89.027344 89.507813 89.832031 89.726563 90.410156 89.921875 C 91.277344 90.222656 92.269531 90.527344 92.972656 91.109375 C 93.902344 91.855469 94.5625 92.933594 94.28125 94.339844 C 93.546875 98.035156 89.554688 98.859375 86.832031 98.859375 C 85.398438 98.859375 83.996094 98.558594 82.65625 98.226563 L 82.722656 95.058594 "/>
</g>
<g clip-path="url(#clip8)" clip-rule="nonzero">
<path style=" stroke:none;fill-rule:nonzero;fill:rgb(0%,32.499695%,62.69989%);fill-opacity:1;" d="M 108.664063 87.425781 C 109.304688 86.148438 110.519531 85.457031 111.828125 85.457031 L 112.765625 85.539063 L 112.089844 88.921875 C 111.675781 88.8125 111.234375 88.699219 110.796875 88.699219 C 110.027344 88.699219 109.246094 89.003906 108.589844 89.609375 C 108.046875 90.136719 108.03125 90.605469 107.894531 91.296875 L 107.0625 95.472656 C 106.808594 96.746094 106.566406 97.574219 107.34375 98.433594 L 107.328125 98.515625 L 101.144531 98.515625 L 101.160156 98.433594 C 102.28125 97.574219 102.363281 96.773438 102.621094 95.472656 L 103.945313 88.835938 C 104.199219 87.5625 104.441406 86.734375 103.660156 85.878906 L 103.679688 85.792969 L 107.269531 85.792969 C 107.859375 85.792969 108.445313 85.683594 108.996094 85.378906 L 109.070313 85.378906 L 108.664063 87.425781 "/>
</g>
<g clip-path="url(#clip9)" clip-rule="nonzero">
<path style=" stroke:none;fill-rule:nonzero;fill:rgb(0%,32.499695%,62.69989%);fill-opacity:1;" d="M 116.941406 98.859375 C 120.835938 98.859375 124.261719 96.351563 125.128906 91.996094 C 125.503906 90.121094 125.085938 88.21875 123.988281 87.03125 C 122.960938 85.867188 121.453125 85.453125 119.816406 85.453125 C 115.976563 85.453125 112.632813 88.054688 111.792969 92.273438 C 110.980469 96.351563 113.277344 98.859375 116.941406 98.859375 Z M 117.761719 96.296875 C 115.507813 96.296875 115.878906 93.402344 116.25 91.554688 C 116.574219 89.929688 117.371094 88.109375 119.1875 88.109375 C 121.257813 88.109375 121.042969 90.867188 120.703125 92.574219 C 120.378906 94.203125 119.703125 96.296875 117.761719 96.296875 "/>
</g>
<g clip-path="url(#clip10)" clip-rule="nonzero">
<path style=" stroke:none;fill-rule:nonzero;fill:rgb(0%,32.499695%,62.69989%);fill-opacity:1;" d="M 131.289063 92.476563 C 131.046875 93.691406 130.328125 96.015625 132.019531 96.015625 C 132.480469 96.015625 133.007813 95.820313 133.34375 95.417969 C 133.886719 94.753906 133.980469 94.035156 134.121094 93.316406 L 135.015625 88.835938 C 135.273438 87.535156 135.484375 86.734375 134.707031 85.878906 L 134.722656 85.792969 L 138.238281 85.792969 C 138.902344 85.792969 139.484375 85.710938 140.0625 85.378906 L 140.140625 85.378906 L 138.128906 95.472656 C 137.894531 96.773438 137.632813 97.574219 138.414063 98.433594 L 138.394531 98.515625 L 133.085938 98.515625 L 133.378906 97.039063 C 132.285156 98.28125 131.019531 98.859375 129.503906 98.859375 C 128.503906 98.859375 127.460938 98.554688 126.8125 97.824219 C 125.980469 96.855469 126.230469 95.585938 126.507813 94.203125 L 127.578125 88.835938 C 127.835938 87.535156 128.046875 86.734375 127.269531 85.878906 L 127.285156 85.792969 L 130.824219 85.792969 C 131.492188 85.792969 132.074219 85.710938 132.625 85.378906 L 132.703125 85.378906 L 131.289063 92.476563 "/>
</g>
<g clip-path="url(#clip11)" clip-rule="nonzero">
<path style=" stroke:none;fill-rule:nonzero;fill:rgb(0%,32.499695%,62.69989%);fill-opacity:1;" d="M 141.558594 88.332031 L 140.019531 88.332031 L 140.394531 86.429688 C 142.644531 86.238281 144.851563 84.167969 145.515625 81.859375 L 147.285156 81.859375 L 146.5 85.796875 L 149.351563 85.796875 L 148.679688 89.160156 L 148.601563 89.160156 C 148.082031 88.304688 147.710938 88.359375 146.632813 88.359375 L 145.988281 88.359375 L 144.960938 93.535156 C 144.761719 94.53125 144.589844 95.25 145.296875 95.832031 C 145.824219 96.273438 146.5625 96.300781 147.253906 96.328125 L 145.65625 98.667969 C 144.976563 98.722656 144.257813 98.859375 143.589844 98.859375 C 142.539063 98.859375 141.265625 98.558594 140.597656 97.785156 C 139.808594 96.851563 140.125 95.527344 140.382813 94.226563 L 141.558594 88.332031 "/>
</g>
<g clip-path="url(#clip12)" clip-rule="nonzero">
<path style=" stroke:none;fill-rule:nonzero;fill:rgb(0%,32.499695%,62.69989%);fill-opacity:1;" d="M 160.199219 94.886719 C 158.773438 95.605469 157.042969 96.296875 155.605469 96.296875 C 153.320313 96.296875 152.171875 94.582031 152.644531 92.203125 L 160.605469 92.203125 C 161.375 87.96875 159.925781 85.453125 155.867188 85.453125 C 152.300781 85.453125 149.027344 88.242188 148.261719 92.09375 C 147.847656 94.167969 148.128906 96.242188 149.515625 97.507813 C 150.722656 98.640625 152.628906 98.859375 154.375 98.859375 C 155.738281 98.859375 157.230469 98.582031 158.578125 98.003906 Z M 153.113281 89.859375 C 153.460938 88.761719 154.257813 87.859375 155.386719 87.859375 C 156.621094 87.859375 156.921875 88.789063 156.710938 89.859375 L 153.113281 89.859375 "/>
</g>
<g clip-path="url(#clip13)" clip-rule="nonzero">
<path style=" stroke:none;fill-rule:nonzero;fill:rgb(0%,32.499695%,62.69989%);fill-opacity:1;" d="M 180.746094 94.886719 C 179.316406 95.605469 177.589844 96.296875 176.148438 96.296875 C 173.863281 96.296875 172.714844 94.582031 173.191406 92.203125 L 181.152344 92.203125 C 181.917969 87.96875 180.46875 85.453125 176.410156 85.453125 C 172.84375 85.453125 169.574219 88.242188 168.804688 92.09375 C 168.394531 94.167969 168.671875 96.242188 170.058594 97.507813 C 171.269531 98.640625 173.175781 98.859375 174.921875 98.859375 C 176.28125 98.859375 177.773438 98.582031 179.121094 98.003906 Z M 173.65625 89.859375 C 174.003906 88.761719 174.800781 87.859375 175.929688 87.859375 C 177.164063 87.859375 177.464844 88.789063 177.253906 89.859375 L 173.65625 89.859375 "/>
</g>
<g clip-path="url(#clip14)" clip-rule="nonzero">
<path style=" stroke:none;fill-rule:nonzero;fill:rgb(0%,32.499695%,62.69989%);fill-opacity:1;" d="M 188.253906 86.914063 C 189.203125 85.894531 190.398438 85.453125 191.710938 85.453125 C 193.097656 85.453125 194.304688 85.839844 195.015625 87.023438 C 195.730469 88.210938 195.402344 89.453125 195.109375 90.921875 L 194.203125 95.484375 C 193.941406 96.785156 193.707031 97.585938 194.511719 98.441406 L 194.496094 98.527344 L 188.257813 98.527344 L 188.273438 98.441406 C 189.421875 97.585938 189.507813 96.785156 189.765625 95.484375 L 190.695313 90.808594 C 190.816406 90.203125 190.945313 89.566406 190.6875 89.039063 C 190.503906 88.542969 190.042969 88.265625 189.503906 88.265625 C 189.066406 88.265625 188.554688 88.515625 188.21875 88.890625 C 187.730469 89.417969 187.601563 90.191406 187.480469 90.800781 L 186.546875 95.472656 C 186.289063 96.773438 186.050781 97.574219 186.859375 98.433594 L 186.84375 98.515625 L 180.605469 98.515625 L 180.621094 98.433594 C 181.769531 97.574219 181.851563 96.773438 182.109375 95.472656 L 183.433594 88.835938 C 183.6875 87.5625 183.921875 86.761719 183.125 85.878906 L 183.140625 85.792969 L 186.578125 85.792969 C 187.195313 85.792969 187.753906 85.683594 188.480469 85.378906 L 188.558594 85.378906 L 188.253906 86.914063 "/>
</g>
<g clip-path="url(#clip15)" clip-rule="nonzero">
<path style=" stroke:none;fill-rule:nonzero;fill:rgb(0%,32.499695%,62.69989%);fill-opacity:1;" d="M 195.652344 95.058594 C 196.835938 95.941406 198.273438 96.578125 199.886719 96.578125 C 200.605469 96.578125 201.75 96.386719 201.953125 95.363281 C 202.320313 93.511719 196.214844 93.402344 196.960938 89.671875 C 197.257813 88.179688 198.199219 87.050781 199.519531 86.335938 C 200.847656 85.589844 202.257813 85.453125 203.59375 85.453125 C 204.929688 85.453125 206.226563 85.644531 207.46875 85.976563 L 206.898438 88.84375 C 206.058594 88.152344 204.980469 87.765625 203.824219 87.765625 C 203.3125 87.765625 202.28125 87.902344 202.132813 88.648438 C 201.960938 89.507813 202.765625 89.726563 203.34375 89.921875 C 204.210938 90.222656 205.199219 90.527344 205.90625 91.109375 C 206.835938 91.855469 207.496094 92.933594 207.214844 94.339844 C 206.480469 98.035156 202.488281 98.859375 199.765625 98.859375 C 198.328125 98.859375 196.929688 98.558594 195.589844 98.226563 L 195.652344 95.058594 "/>
</g>
<g clip-path="url(#clip16)" clip-rule="nonzero">
<path style=" stroke:none;fill-rule:nonzero;fill:rgb(0%,32.499695%,62.69989%);fill-opacity:1;" d="M 220.292969 94.886719 C 218.863281 95.605469 217.132813 96.296875 215.695313 96.296875 C 213.410156 96.296875 212.261719 94.582031 212.734375 92.203125 L 220.695313 92.203125 C 221.464844 87.96875 220.015625 85.453125 215.957031 85.453125 C 212.390625 85.453125 209.117188 88.242188 208.351563 92.09375 C 207.9375 94.167969 208.21875 96.242188 209.605469 97.507813 C 210.8125 98.640625 212.71875 98.859375 214.464844 98.859375 C 215.828125 98.859375 217.320313 98.582031 218.667969 98.003906 Z M 213.203125 89.859375 C 213.550781 88.761719 214.347656 87.859375 215.476563 87.859375 C 216.710938 87.859375 217.011719 88.789063 216.800781 89.859375 L 213.203125 89.859375 "/>
</g>
<g clip-path="url(#clip17)" clip-rule="nonzero">
<path style=" stroke:none;fill-rule:nonzero;fill:rgb(0%,32.499695%,62.69989%);fill-opacity:1;" d="M 227.738281 87.058594 C 228.699219 85.976563 229.859375 85.453125 231.167969 85.453125 C 232.398438 85.453125 233.339844 86.007813 233.925781 87.058594 C 235.132813 85.894531 236.558594 85.453125 237.996094 85.453125 C 239.101563 85.453125 240.195313 85.757813 240.917969 86.503906 C 241.832031 87.445313 241.828125 88.496094 241.542969 89.933594 L 240.433594 95.492188 C 240.179688 96.761719 239.945313 97.566406 240.742188 98.449219 L 240.726563 98.53125 L 234.519531 98.53125 L 234.535156 98.449219 C 235.660156 97.566406 235.738281 96.789063 235.996094 95.492188 L 236.90625 90.929688 C 237.125 89.820313 237.550781 88.328125 236.089844 88.328125 C 234.597656 88.328125 234.367188 89.878906 234.15625 90.929688 L 233.246094 95.492188 C 232.992188 96.761719 232.757813 97.566406 233.558594 98.449219 L 233.539063 98.53125 L 227.328125 98.53125 L 227.347656 98.449219 C 228.472656 97.566406 228.550781 96.789063 228.808594 95.492188 L 229.636719 91.34375 C 229.867188 90.179688 230.417969 88.328125 228.847656 88.328125 C 227.257813 88.328125 227.113281 90.207031 226.890625 91.324219 L 226.0625 95.472656 C 225.808594 96.746094 225.574219 97.546875 226.371094 98.433594 L 226.355469 98.515625 L 220.144531 98.515625 L 220.164063 98.433594 C 221.289063 97.546875 221.367188 96.773438 221.625 95.472656 L 222.949219 88.835938 C 223.207031 87.535156 223.445313 86.734375 222.664063 85.878906 L 222.679688 85.792969 L 226.246094 85.792969 C 226.8125 85.792969 227.429688 85.65625 227.996094 85.378906 L 228.074219 85.378906 L 227.738281 87.058594 "/>
</g>
<g clip-path="url(#clip18)" clip-rule="nonzero">
<path style=" stroke:none;fill-rule:nonzero;fill:rgb(0%,32.499695%,62.69989%);fill-opacity:1;" d="M 247.039063 96.191406 C 247.28125 96.273438 247.527344 96.328125 247.785156 96.328125 C 250.03125 96.328125 251.230469 94.453125 251.65625 92.304688 C 252.117188 89.988281 251.625 88.0625 249.300781 87.949219 L 250.984375 85.589844 C 251.398438 85.453125 251.789063 85.425781 252.203125 85.425781 C 253.59375 85.425781 255.019531 86.117188 255.777344 87.199219 C 256.601563 88.335938 256.820313 90.074219 256.503906 91.671875 C 256.078125 93.792969 254.921875 95.75 253.082031 97.125 C 251.1875 98.53125 249.089844 98.859375 247.023438 98.859375 C 245.175781 98.859375 243.3125 98.558594 241.601563 98.117188 L 241.617188 98.035156 C 242.382813 97.429688 242.460938 96.90625 242.644531 95.96875 L 245.15625 83.378906 C 245.382813 82.105469 245.644531 81.304688 244.871094 80.417969 L 244.886719 80.335938 L 248.273438 80.335938 C 248.992188 80.335938 249.558594 80.335938 250.210938 79.894531 L 250.285156 79.894531 L 247.039063 96.191406 "/>
</g>
<g clip-path="url(#clip19)" clip-rule="nonzero">
<path style=" stroke:none;fill-rule:nonzero;fill:rgb(0%,32.499695%,62.69989%);fill-opacity:1;" d="M 262.617188 80.320313 C 263.515625 80.320313 264.234375 80.179688 265.015625 79.875 L 265.089844 79.875 L 261.984375 95.472656 C 261.730469 96.746094 261.492188 97.546875 262.265625 98.433594 L 262.25 98.515625 L 256.066406 98.515625 L 256.082031 98.433594 C 257.210938 97.546875 257.292969 96.746094 257.546875 95.472656 L 259.953125 83.386719 C 260.230469 82.003906 260.433594 81.371094 259.726563 80.402344 L 259.742188 80.320313 L 262.617188 80.320313 "/>
</g>
<g clip-path="url(#clip20)" clip-rule="nonzero">
<path style=" stroke:none;fill-rule:nonzero;fill:rgb(0%,32.499695%,62.69989%);fill-opacity:1;" d="M 276.273438 94.886719 C 274.847656 95.605469 273.117188 96.296875 271.679688 96.296875 C 269.390625 96.296875 268.242188 94.582031 268.71875 92.203125 L 276.679688 92.203125 C 277.445313 87.96875 275.996094 85.453125 271.9375 85.453125 C 268.371094 85.453125 265.101563 88.242188 264.335938 92.09375 C 263.921875 94.167969 264.199219 96.242188 265.585938 97.507813 C 266.796875 98.640625 268.699219 98.859375 270.449219 98.859375 C 271.808594 98.859375 273.300781 98.582031 274.648438 98.003906 Z M 269.183594 89.859375 C 269.53125 88.761719 270.328125 87.859375 271.457031 87.859375 C 272.691406 87.859375 272.992188 88.789063 272.78125 89.859375 L 269.183594 89.859375 "/>
</g>
<path style=" stroke:none;fill-rule:nonzero;fill:rgb(0%,32.499695%,62.69989%);fill-opacity:1;" d="M 0.546875 87.992188 L 0 87.523438 L 3.015625 81.101563 C 3.40625 80.320313 3.71875 79.773438 3.992188 79.535156 C 4.269531 79.261719 4.621094 79.144531 4.972656 79.144531 C 5.519531 79.144531 5.988281 79.261719 6.34375 79.535156 C 6.65625 79.773438 6.851563 80.125 6.851563 80.554688 C 6.851563 80.867188 6.734375 81.21875 6.5 81.652344 C 6.304688 82.082031 6.03125 82.433594 5.714844 82.746094 Z M 6.5 87.992188 L 5.949219 87.523438 L 8.964844 81.101563 C 9.355469 80.320313 9.671875 79.773438 9.945313 79.535156 C 10.21875 79.261719 10.53125 79.144531 10.921875 79.144531 C 11.511719 79.144531 11.941406 79.261719 12.292969 79.535156 C 12.648438 79.773438 12.800781 80.125 12.800781 80.554688 C 12.800781 80.867188 12.683594 81.21875 12.449219 81.613281 C 12.214844 82.042969 11.941406 82.433594 11.628906 82.746094 L 6.5 87.992188 "/>
<g clip-path="url(#clip21)" clip-rule="nonzero">
<path style=" stroke:none;fill-rule:nonzero;fill:rgb(0%,32.499695%,62.69989%);fill-opacity:1;" d="M 280.136719 87.992188 L 279.585938 87.523438 L 282.601563 81.101563 C 282.953125 80.320313 283.304688 79.773438 283.578125 79.535156 C 283.855469 79.261719 284.167969 79.144531 284.558594 79.144531 C 285.105469 79.144531 285.578125 79.261719 285.890625 79.535156 C 286.242188 79.773438 286.398438 80.125 286.398438 80.554688 C 286.398438 80.867188 286.320313 81.21875 286.085938 81.652344 C 285.851563 82.082031 285.578125 82.433594 285.261719 82.746094 Z M 286.085938 87.992188 L 285.539063 87.523438 L 288.550781 81.101563 C 288.945313 80.320313 289.257813 79.773438 289.53125 79.535156 C 289.804688 79.261719 290.117188 79.144531 290.511719 79.144531 C 291.058594 79.144531 291.527344 79.261719 291.878906 79.535156 C 292.191406 79.773438 292.390625 80.125 292.390625 80.554688 C 292.390625 80.867188 292.269531 81.21875 292.035156 81.613281 C 291.800781 82.042969 291.527344 82.433594 291.214844 82.746094 L 286.085938 87.992188 "/>
</g>
</g>
</svg>
